<?xml version="1.0" encoding="UTF-8" standalone="no"?>
<svg
   xmlns:dc="http://purl.org/dc/elements/1.1/"
   xmlns:cc="http://creativecommons.org/ns#"
   xmlns:rdf="http://www.w3.org/1999/02/22-rdf-syntax-ns#"
   xmlns:svg="http://www.w3.org/2000/svg"
   xmlns="http://www.w3.org/2000/svg"
   xmlns:sodipodi="http://sodipodi.sourceforge.net/DTD/sodipodi-0.dtd"
   xmlns:inkscape="http://www.inkscape.org/namespaces/inkscape"
   version="1.1"
   id="_x31_0"
   x="0px"
   y="0px"
   viewBox="0 0 512 512"
   style="width: 256px; height: 256px; opacity: 1;"
   xml:space="preserve"
   sodipodi:docname="調整さんアイコン.svg"
   inkscape:export-filename="C:\Users\moriti\Desktop\calender.png"
   inkscape:export-xdpi="96"
   inkscape:export-ydpi="96"
   inkscape:version="1.0 (4035a4fb49, 2020-05-01)"><metadata
   id="metadata13"><rdf:RDF><cc:Work
       rdf:about=""><dc:format>image/svg+xml</dc:format><dc:type
         rdf:resource="http://purl.org/dc/dcmitype/StillImage" /><dc:title /></cc:Work></rdf:RDF></metadata><defs
   id="defs11" /><sodipodi:namedview
   inkscape:document-rotation="0"
   pagecolor="#ffffff"
   bordercolor="#666666"
   borderopacity="1"
   objecttolerance="10"
   gridtolerance="10"
   guidetolerance="10"
   inkscape:pageopacity="0"
   inkscape:pageshadow="2"
   inkscape:window-width="1627"
   inkscape:window-height="1008"
   id="namedview9"
   showgrid="false"
   inkscape:zoom="1.6601562"
   inkscape:cx="256"
   inkscape:cy="239.46364"
   inkscape:window-x="239"
   inkscape:window-y="0"
   inkscape:window-maximized="0"
   inkscape:current-layer="layer1" />
<style
   type="text/css"
   id="style2">
	.st0{fill:#374149;}
</style>
<g
   id="g6">
	<path
   class="st0"
   d="M475.154,33.5h-71.496h-0.059V16.11c0-8.836-7.269-16.11-16.105-16.11h-5.274   c-8.981,0-16.11,7.274-16.11,16.11V33.5h-91.246h-0.121V16.11c0-8.836-7.27-16.11-16.106-16.11h-5.274   c-8.98,0-16.109,7.274-16.109,16.11V33.5H146.01h-0.121V16.11c0-8.836-7.27-16.11-16.106-16.11h-5.418   c-8.835,0-16.105,7.274-16.105,16.11V33.5H36.705c-10.976,0-19.957,8.977-19.957,20.098v438.309   c0,11.117,8.981,20.094,19.957,20.094h438.45c11.117,0,20.098-8.977,20.098-20.094V53.598   C495.252,42.477,486.271,33.5,475.154,33.5z M145.97,75.332c2.242,1.551,4.219,3.234,6.047,5.203   c2.711,2.851,4.988,6.274,6.699,9.981c1.711,4.133,2.711,8.835,2.711,13.538c0,18.958-15.395,34.352-34.352,34.352   c-18.961,0-34.351-15.394-34.351-34.352c0-4.703,0.996-9.406,2.706-13.538c1.711-3.707,3.989-7.13,6.7-9.981   c1.851-1.996,3.847-3.703,6.129-5.274v5.274v9.981v8.835c0,10.406,8.41,18.817,18.816,18.817c10.402,0,18.813-8.41,18.813-18.817   v-8.835v-9.981v-3.45L145.97,75.332z M77.764,259.59V171.91h83.121v87.679H77.858H77.764z M77.764,355.27v-87.68h83.121v87.68   H77.858H77.764z M77.764,450.782V363.27h49.367l33.648,0.11l-48.015,50.652L77.764,450.782z M274.826,75.332   c2.242,1.551,4.218,3.234,6.046,5.203c2.711,2.851,4.989,6.274,6.699,9.981c1.711,4.133,2.711,8.835,2.711,13.538   c0,18.958-15.394,34.352-34.355,34.352c-18.958,0-34.352-15.394-34.352-34.352c0-4.703,1-9.406,2.711-13.538   c1.711-3.707,3.988-7.13,6.699-9.981c1.851-1.996,3.988-3.848,6.27-5.274v5.274v9.981v8.835c0,10.406,8.27,18.817,18.672,18.817   c10.406,0,18.816-8.41,18.816-18.817v-8.835v-9.981v-3.45L274.826,75.332z M294.998,318.351l-34.997,36.75V267.59h49.363   l33.649,0.11L294.998,318.351z M260.002,259.59V171.91h83.118v87.679h-83.023H260.002z M260.002,450.95v-87.68h83.118v87.68   h-83.023H260.002z M251.897,172.019l-48.016,50.653l-34.996,36.75V171.91h49.363L251.897,172.019z M168.885,355.27v-87.68h83.117   v87.68h-83.023H168.885z M168.885,450.95v-87.68h83.117v87.68h-83.023H168.885z M403.682,75.332   c2.242,1.551,4.218,3.234,6.047,5.203c2.706,2.851,4.988,6.274,6.699,9.981c1.71,4.133,2.71,8.835,2.71,13.538   c0,18.958-15.394,34.352-34.351,34.352c-18.961,0-34.356-15.394-34.356-34.352c0-4.703,1-9.406,2.711-13.538   c1.707-3.707,3.989-7.13,6.699-9.981c1.852-1.996,3.989-3.848,6.27-5.274v5.274v9.981v8.835c0,10.406,8.41,18.817,18.676,18.817   c10.402,0,18.812-8.41,18.812-18.817v-8.835v-9.981v-3.45L403.682,75.332z M351.119,355.27v-87.68h83.117v87.68h-83.023H351.119z    M351.119,450.95v-87.68h83.117v87.68h-83.023H351.119z M434.236,259.59h-83.023h-0.094V171.91h83.117V259.59z"
   style="fill: rgb(75, 75, 75);"
   id="path4" />
</g>
<path
   style="fill:#008000;stroke-width:0.603302;stroke-linecap:round"
   d="m 30.256398,510.56468 c -4.589932,-1.58796 -8.475354,-5.12711 -10.981104,-10.00246 L 17.167059,496.4603 V 273.2278 c 0,-218.220568 0.02585,-223.306887 1.151255,-226.545447 0.854461,-2.458865 2.096754,-4.246134 4.818823,-6.932772 6.098439,-6.01906 3.643428,-5.723076 47.440906,-5.719619 l 37.749807,0.003 L 108.52628,23.04 c 0.19662,-10.892852 0.2147,-11.022313 1.98523,-14.2188743 3.43361,-6.1990963 7.95999,-8.51994923 16.61653,-8.51994923 8.45919,0 13.1838,2.43583453 16.56292,8.53922633 1.75492,3.1697482 1.77776,3.3331802 1.98435,14.1995972 l 0.209,10.992941 h 45.66393 45.66392 L 237.42116,23.04 c 0.20659,-10.866417 0.22943,-11.029849 1.98435,-14.1995972 2.02961,-3.6659017 5.11128,-6.3469765 8.78523,-7.6432204 3.04499,-1.07433648 12.63561,-1.13469955 15.44954,-0.097239 3.93376,1.450328 7.20347,4.364369 8.99812,8.0193272 1.68045,3.4223834 1.73945,3.8565054 1.93273,14.2219054 l 0.19937,10.691765 h 45.6726 45.67259 L 366.32469,23.04 c 0.20688,-10.881743 0.22706,-11.025573 1.99484,-14.2188743 3.47011,-6.2683734 7.93531,-8.51994923 16.89627,-8.51994923 4.93912,0 5.90254,0.19173581 9.17159,1.82529913 2.02591,1.0123594 4.3628,2.7562326 5.24704,3.9155304 3.17127,4.157745 3.54484,5.849605 3.8197,17.29917 l 0.25668,10.691765 38.03165,4.75e-4 38.03166,4.76e-4 3.62758,1.716158 c 4.52734,2.14182 8.81733,6.749838 10.33467,11.100818 1.05289,3.019187 1.09657,12.033592 1.09657,226.328862 V 496.36417 L 492.85,500.3921 c -2.15661,4.38067 -5.23828,7.44014 -9.71742,9.64738 l -2.75611,1.35817 -223.47294,0.1326 C 42.02879,511.65775 33.30846,511.6206 30.256398,510.56468 Z M 252.2392,407.04 l 0.1545,-44.12235 h -41.86744 -41.86744 v 44.27706 44.27707 l 41.71294,-0.15471 41.71295,-0.15472 z m 91.10198,0.15059 v -44.27294 h -41.86353 -41.86353 v 43.87137 c 0,24.12926 0.1807,44.05208 0.40157,44.27294 0.22086,0.22086 19.05945,0.40157 41.86353,0.40157 h 41.46196 z m 90.95529,-0.004 v -44.27706 l -41.71294,0.15471 -41.71294,0.15471 -0.15584,43.36941 c -0.0857,23.85318 -0.0264,43.70824 0.13168,44.12236 0.22618,0.5923 9.15869,0.75294 41.86879,0.75294 l 41.58125,9e-5 v -44.27707 z m -324.66823,10.52544 c 42.20556,-44.4164 50.89683,-53.63825 51.0996,-54.2191 0.12627,-0.3616 -15.24331,-0.57506 -41.41176,-0.57506 H 77.703529 l 0.01831,44.12235 0.01831,44.12235 4.348754,-4.52254 c 2.391799,-2.48739 14.784506,-15.50495 27.539337,-28.9279 z m 51.50117,-106.29534 v -43.97176 l -41.71294,-0.15472 -41.712941,-0.15471 v 44.28119 44.28119 l 41.712941,-0.15471 41.71294,-0.15471 z m 91.25647,0 v -44.27294 h -41.86353 -41.86353 v 44.27294 44.27294 h 41.86353 41.86353 z m 181.91059,-0.004 v -44.27706 l -41.71294,0.15471 -41.71294,0.15472 -0.15584,43.36941 c -0.0857,23.85317 -0.0264,43.70823 0.13168,44.12235 0.22618,0.59231 9.15869,0.75294 41.86879,0.75294 l 41.58125,9e-5 v -44.27707 z m -148.6728,17.17622 c 13.6891,-14.40851 32.24369,-33.92475 41.23244,-43.36941 8.98874,-9.44456 16.22357,-17.3753 16.07739,-17.62377 -0.14618,-0.24847 -18.95284,-0.45176 -41.79258,-0.45176 h -41.5268 v 44.02196 c 0,26.87859 0.21813,43.94377 0.56014,43.82117 0.30807,-0.11042 11.76031,-11.98957 25.44941,-26.39809 z M 161.12941,215.64235 v -43.97176 l -41.71294,-0.15472 -41.712941,-0.1547 v 44.28118 44.28119 l 41.712941,-0.15471 41.71294,-0.15471 z m 182.21177,-0.004 v -44.27706 l -41.71294,0.1547 -41.71295,0.15472 -0.15449,44.12235 -0.1545,44.12235 h 41.86744 41.86744 z m 90.95529,0 v -44.27706 l -41.71294,0.1547 -41.71294,0.15472 -0.15584,43.36941 c -0.0857,23.85318 -0.0264,43.70823 0.13168,44.12235 0.22618,0.59231 9.15869,0.75294 41.86879,0.75294 l 41.58125,9e-5 v -44.27706 z m -251.12949,29.2088 c 7.42569,-7.7906 25.96996,-27.30684 41.20949,-43.36941 l 27.70824,-29.20468 -12.04706,-0.37018 c -6.62589,-0.2036 -25.39671,-0.40689 -41.71294,-0.45176 l -29.66589,-0.0815 v 44.02196 c 0,24.21208 0.22655,43.93161 0.50345,43.82118 0.2769,-0.11043 6.57902,-6.57491 14.00471,-14.36552 z m -46.3683,-107.57493 c 5.46869,-1.60618 10.25667,-4.5282 14.69454,-8.96781 6.76667,-6.76925 9.93737,-14.5186 9.93737,-24.28733 0,-10.025338 -3.00274,-17.019601 -10.52091,-24.506282 l -4.83909,-4.818823 -0.31195,14.45647 c -0.29212,13.537465 -0.40247,14.658275 -1.73586,17.630935 -1.78738,3.9848 -6.81265,8.69309 -10.68752,10.01339 -3.62718,1.23591 -8.8504,1.23591 -12.47758,0 -3.86434,-1.31671 -8.89671,-6.02699 -10.69812,-10.01339 -1.34868,-2.98456 -1.45252,-4.03929 -1.73585,-17.630935 l -0.30136,-14.45647 -4.90005,4.849182 c -7.571014,7.492427 -10.46635,14.318074 -10.452797,24.642073 0.01181,8.97191 2.780967,16.4058 8.502647,22.82538 8.83983,9.91807 22.8864,13.97615 35.52653,10.2637 z m 129.67276,-0.30785 c 5.53794,-1.85518 9.90732,-4.56227 13.92385,-8.62666 6.38245,-6.45847 9.94698,-15.1518 9.92992,-24.21748 -0.0191,-10.146685 -3.00277,-17.131738 -10.512,-24.609522 l -4.83909,-4.818824 -0.30118,14.456471 c -0.2986,14.333035 -0.31558,14.485795 -1.98798,17.891455 -4.25633,8.66752 -13.97461,12.80215 -22.92375,9.75287 -3.87487,-1.3203 -8.90014,-6.02859 -10.68752,-10.01339 -1.33245,-2.97057 -1.44394,-4.09796 -1.73586,-17.55234 l -0.31195,-14.377785 -2.80973,2.330816 c -2.91296,2.416448 -6.59654,6.811564 -8.76877,10.462582 -3.51826,5.913371 -4.94198,16.598237 -3.21047,24.094117 3.08539,13.35685 14.3739,24.05368 27.94839,26.48348 4.37134,0.78245 11.94522,0.19849 16.28614,-1.2557 z m 128.90353,0 c 14.36478,-4.81214 23.82292,-17.84849 23.85377,-32.87813 0.0203,-9.899709 -3.07929,-17.173126 -10.44404,-24.50752 l -4.90705,-4.886745 -0.35633,14.155294 c -0.4045,16.069221 -0.81284,17.956891 -4.8852,22.583331 -4.8212,5.47718 -12.88183,7.70935 -19.68249,5.45054 -4.13988,-1.37505 -9.11638,-5.955 -10.97641,-10.10176 -1.33209,-2.96976 -1.44402,-4.09968 -1.73586,-17.522336 l -0.31195,-14.347867 -2.88414,2.248692 c -1.58627,1.236781 -4.13234,3.898501 -5.6579,5.914931 -4.98222,6.585254 -7.10321,13.05235 -7.04212,21.47197 0.12008,16.55017 12.21145,30.71618 28.74358,33.67539 4.37134,0.78245 11.94522,0.19849 16.28614,-1.2557 z"
   id="path838" /><g
   inkscape:groupmode="layer"
   id="layer1"
   inkscape:label="Layer 1"><text
     xml:space="preserve"
     style="font-style:normal;font-variant:normal;font-weight:normal;font-stretch:normal;font-size:305.557px;line-height:1.25;font-family:sans-serif;-inkscape-font-specification:'sans-serif, Normal';font-variant-ligatures:normal;font-variant-caps:normal;font-variant-numeric:normal;font-variant-east-asian:normal;letter-spacing:0px;word-spacing:0px;fill:#ff0000;stroke-width:28.6459"
     x="133.90488"
     y="244.06908"
     id="text843"
     transform="matrix(0.68555257,0.17601998,-0.35136159,1.368463,0,0)"
     inkscape:export-xdpi="96"
     inkscape:export-ydpi="96"><tspan
       sodipodi:role="line"
       id="tspan845"
       x="133.90488"
       y="244.06908"
       style="fill:#ff0000;stroke-width:28.6459">調整</tspan></text></g></svg>
